<?xml version="1.0" encoding="UTF-8"?>
<svg id="Camada_1" xmlns="http://www.w3.org/2000/svg" version="1.1" viewBox="0 0 841.9 595.3">
  <!-- Generator: Adobe Illustrator 29.6.1, SVG Export Plug-In . SVG Version: 2.1.1 Build 9)  -->
  <path d="M440,14.7c-.2,0-.5,0-.7,0-1.8-.1-3.6-.2-5.4-.3-.7,0-1.5,0-2.2,0-1.4,0-2.7-.1-4.1-.1-2.1,0-4.2,0-6.3,0h0c-.1,0-.2,0-.4,0s-.2,0-.4,0h0c-2.1,0-4.2,0-6.3,0-1.4,0-2.7,0-4.1.1-.7,0-1.5,0-2.2,0-1.8,0-3.6.2-5.4.3-.2,0-.5,0-.7,0C254.1,24.5,137.3,147.4,137.3,297.6s0,5.4.1,8c0,.9,0,1.7,0,2.6,0,1.8.1,3.6.2,5.4,0,1,.1,2,.2,3,.1,1.7.2,3.4.4,5,0,1,.2,2,.3,3,.2,1.7.3,3.4.5,5.1.1.9.2,1.9.3,2.8.2,1.9.5,3.9.8,5.8,0,.6.2,1.3.3,1.9.1.8.3,1.6.4,2.4,0,0,0,0,0,0,.1.7.2,1.3.3,2,.2,1.1.4,2.3.6,3.4,0,.4.2.8.2,1.2.2.9.4,1.9.5,2.8.2.9.3,1.7.5,2.6,0,.4.1.7.2,1.1.2.8.3,1.6.5,2.4.4,1.8.8,3.5,1.2,5.3.2.7.3,1.4.5,2,0,.1,0,.2,0,.4,0,0,0,.1,0,.2.4,1.7.9,3.4,1.3,5.1.2.8.4,1.6.7,2.5.3,1.2.7,2.4,1,3.6,0,.3.2.6.3.9,0,.3.2.6.3,1,.2.7.4,1.3.6,2,0,.3.2.6.3.9.4,1.1.7,2.3,1.1,3.4.3,1,.6,2,1,3,0,0,0,0,0,0,.3.9.6,1.8,1,2.7.4,1,.7,2,1.1,3.1.2.6.4,1.2.6,1.7.1.3.2.6.4.9.1.3.2.6.3.9.2.5.4,1,.6,1.6.5,1.3,1,2.6,1.5,3.8,0,.2.2.5.3.7,0,0,0,0,0,0,.1.3.3.7.4,1,.2.5.4.9.6,1.4.2.4.4.9.5,1.3.4.9.8,1.8,1.2,2.7.3.6.5,1.2.8,1.8.8,1.8,1.6,3.6,2.5,5.4.2.5.5,1,.7,1.6,0,0,0,.1,0,.2.8,1.6,1.5,3.2,2.3,4.7.2.4.4.8.6,1.3.1.2.2.4.3.6.8,1.5,1.6,3.1,2.4,4.6.1.2.3.5.4.7,0,0,0,0,0,0,1.2,2.3,2.5,4.5,3.7,6.8.3.4.5.9.8,1.3,0,.2.2.3.3.5,0,.1.2.3.2.4.6,1.1,1.3,2.1,1.9,3.1.4.7.8,1.4,1.2,2,.2.3.4.7.6,1,.2.3.4.7.6,1,.1.2.2.4.3.5,0,0,.1.2.2.3,1,1.6,2,3.2,3.1,4.8.2.3.4.7.7,1,1.3,2,2.6,3.9,4,5.8.1.2.2.4.4.5.3.5.7.9,1,1.4,0,0,.1.2.2.3,1.2,1.6,2.4,3.3,3.6,4.9.4.5.7,1,1.1,1.4,0,0,0,0,0,0,.7.9,1.4,1.8,2,2.7,0,0,0,0,0,0,.5.6,1,1.2,1.4,1.8,0,0,0,0,0,0,.7.9,1.4,1.8,2.1,2.7,0,0,0,0,0,0,.5.6.9,1.2,1.4,1.7.5.6,1.1,1.3,1.6,2h0c.2.2.4.4.5.6.2.2.4.5.6.7,1.3,1.5,2.6,3,3.9,4.5.1.1.3.3.4.4.5.6,1,1.1,1.5,1.7.9,1,1.8,2,2.8,3,.2.3.5.5.7.8.1.1.2.2.3.3,0,0,0,0,0,0,3,3.2,6.1,6.4,9.3,9.5,112.3-82.7,185.1-215,187.4-363.1-31.6,102.5-119.2,180.3-227,197.9-2-12.4-3-25.1-3-38.1,0-132.7,107.6-240.3,240.3-240.3s240.3,107.6,240.3,240.3-1,25.7-3,38.1c-107.9-17.5-195.5-95.4-227-197.9,2.3,148.1,75.1,280.4,187.4,363.1,3.2-3.1,6.3-6.3,9.3-9.5,0,0,0,0,0,0,.1-.1.2-.2.3-.3.2-.3.5-.5.7-.8.9-1,1.8-2,2.8-3,.5-.6,1-1.1,1.5-1.7.1-.1.3-.3.4-.4,1.3-1.5,2.6-3,3.9-4.5.2-.2.4-.5.6-.7.2-.2.4-.4.5-.6h0c.5-.7,1.1-1.3,1.6-2,.5-.6.9-1.2,1.4-1.7,0,0,0,0,0,0,.7-.9,1.4-1.8,2.1-2.7,0,0,0,0,0,0,.5-.6,1-1.2,1.4-1.8,0,0,0,0,0,0,.7-.9,1.4-1.8,2-2.7,0,0,0,0,0,0,.4-.5.7-.9,1.1-1.4,1.2-1.6,2.4-3.3,3.6-4.9,0,0,.1-.2.2-.3.3-.5.7-.9,1-1.4.1-.2.2-.4.4-.5,1.3-1.9,2.7-3.9,4-5.8.2-.3.4-.7.7-1,1-1.6,2.1-3.2,3.1-4.8,0,0,.1-.2.2-.3.1-.2.2-.4.3-.5.2-.3.4-.7.6-1,.2-.3.4-.7.6-1,.4-.7.8-1.4,1.2-2,.6-1,1.3-2.1,1.9-3.1,0-.1.2-.3.2-.4,0-.2.2-.3.3-.5.3-.4.5-.9.8-1.3,1.3-2.2,2.5-4.5,3.7-6.8,0,0,0,0,0,0,.1-.2.3-.5.4-.7.8-1.5,1.6-3.1,2.4-4.6.1-.2.2-.4.3-.6.2-.4.4-.8.6-1.3.8-1.6,1.6-3.1,2.3-4.7,0,0,0-.1,0-.2.2-.5.5-1,.7-1.6.8-1.8,1.7-3.6,2.5-5.4.3-.6.5-1.2.8-1.8.4-.9.8-1.8,1.2-2.7.2-.4.4-.9.5-1.3.2-.5.4-.9.6-1.4.1-.3.3-.7.4-1,0,0,0,0,0,0,.1-.2.2-.5.3-.7.5-1.3,1-2.5,1.5-3.8.2-.5.4-1,.6-1.6.1-.3.2-.6.3-.9.1-.3.2-.6.4-.9.2-.6.4-1.2.6-1.7.4-1,.7-2,1.1-3.1.3-.9.7-1.8,1-2.7,0,0,0,0,0,0,.3-1,.6-2,1-3,.4-1.1.7-2.2,1.1-3.4,0-.3.2-.6.3-.9.2-.7.4-1.3.6-2,0-.3.2-.6.3-1,0-.3.2-.6.3-.9.3-1.2.7-2.4,1-3.6.2-.8.4-1.6.7-2.5.5-1.7.9-3.4,1.3-5.1,0,0,0-.1,0-.2,0-.1,0-.2,0-.4.2-.7.3-1.4.5-2,.4-1.8.8-3.5,1.2-5.3.2-.8.3-1.6.5-2.4,0-.4.1-.7.2-1.1.2-.9.3-1.7.5-2.6.2-.9.4-1.9.5-2.8,0-.4.2-.8.2-1.2.2-1.1.4-2.3.6-3.4.1-.7.2-1.3.3-2,0,0,0,0,0,0,.1-.8.3-1.6.4-2.4,0-.6.2-1.3.3-1.9.3-1.9.5-3.9.8-5.8.1-.9.2-1.9.3-2.8.2-1.7.4-3.4.5-5.1,0-1,.2-2,.3-3,.1-1.7.3-3.4.4-5,0-1,.1-2,.2-3,.1-1.8.2-3.6.2-5.4,0-.9,0-1.7,0-2.6,0-2.7.1-5.3.1-8,0-150.2-116.8-273.1-264.5-283Z"/>
  <path d="M559.4,494.1c-87.3-86.9-138.4-200-138.4-328.9,0,128.9-51.1,242.1-138.4,328.9-7.8,7.8-33.1,29.4-33.1,29.4,1.4,1.1,2.9,2.2,4.3,3.2.1,0,.2.2.4.3,7.4,5.4,15,10.4,22.9,15.1.2.1.4.3.6.4,1.4.8,2.9,1.7,4.3,2.5.3.2.6.3.8.5,1.5.8,2.9,1.6,4.4,2.4,0,0,0,0,.1,0,4.7,2.5,9.5,4.9,14.3,7.1.3.2.7.3,1,.5,1.3.6,2.7,1.2,4,1.8.5.2,1.1.5,1.6.7,1.3.6,2.6,1.1,3.9,1.7.6.2,1.2.5,1.8.7,1.3.5,2.6,1.1,4,1.6.4.2.8.3,1.2.5,2.7,1,5.4,2,8.1,3,.6.2,1.1.4,1.7.6,1.2.4,2.4.8,3.5,1.2.8.3,1.7.6,2.5.8,1.1.4,2.3.7,3.4,1,.9.3,1.9.6,2.8.8,1.1.3,2.2.6,3.3.9,1,.3,2,.6,3.1.8,1,.3,2,.6,3.1.8,1.9.5,3.8.9,5.7,1.4.9.2,1.8.4,2.7.6,1.3.3,2.6.6,3.8.8.9.2,1.9.4,2.8.6,1.2.2,2.4.5,3.7.7.9.2,1.9.3,2.8.5,1.3.2,2.6.4,3.8.6.9.1,1.7.3,2.6.4,1.6.2,3.1.4,4.7.7.6,0,1.2.2,1.8.2,2.1.3,4.3.5,6.4.7.7,0,1.3.1,2,.2,1.5.1,3.1.3,4.6.4.8,0,1.6.1,2.5.2,1.4.1,2.9.2,4.3.3.8,0,1.7,0,2.5.1,1.5,0,3.1.1,4.6.2.7,0,1.4,0,2.2,0,2.2,0,4.5,0,6.7,0s4.5,0,6.7,0c.7,0,1.4,0,2.2,0,1.5,0,3.1-.1,4.6-.2.8,0,1.7,0,2.5-.1,1.4,0,2.9-.2,4.3-.3.8,0,1.6-.1,2.5-.2,1.6-.1,3.1-.3,4.6-.4.7,0,1.3-.1,2-.2,2.2-.2,4.3-.5,6.4-.7.6,0,1.2-.2,1.8-.2,1.6-.2,3.1-.4,4.7-.7.9-.1,1.7-.3,2.6-.4,1.3-.2,2.6-.4,3.8-.6.9-.2,1.9-.3,2.8-.5,1.2-.2,2.4-.5,3.7-.7.9-.2,1.9-.4,2.8-.6,1.3-.3,2.6-.6,3.8-.8.9-.2,1.8-.4,2.7-.6,1.9-.4,3.8-.9,5.7-1.4,1-.3,2-.5,3.1-.8,1-.3,2.1-.5,3.1-.8,1.1-.3,2.2-.6,3.3-.9.9-.3,1.9-.5,2.8-.8,1.1-.3,2.3-.7,3.4-1,.8-.3,1.7-.5,2.5-.8,1.2-.4,2.4-.8,3.5-1.2.6-.2,1.1-.4,1.7-.6,2.7-1,5.4-1.9,8.1-3,.4-.2.8-.3,1.2-.5,1.3-.5,2.6-1.1,4-1.6.6-.2,1.2-.5,1.8-.7,1.3-.5,2.6-1.1,3.9-1.7.6-.2,1.1-.5,1.6-.7,1.3-.6,2.7-1.2,4-1.8.3-.2.7-.3,1-.5,4.8-2.2,9.6-4.6,14.3-7.1,0,0,0,0,.1,0,1.5-.8,3-1.6,4.4-2.4.3-.2.6-.3.8-.5,1.4-.8,2.9-1.6,4.3-2.5.2-.1.4-.3.6-.4,7.9-4.7,15.5-9.7,22.9-15.1.1,0,.2-.2.4-.3,1.5-1.1,2.9-2.1,4.3-3.2,0,0-25.2-21.6-33.1-29.4Z"/>
</svg>